<svg width="40" height="40" viewBox="0 0 40 40" fill="none" xmlns="http://www.w3.org/2000/svg">
<circle cx="20" cy="20" r="20" fill="#CAB7FA"/>
<path d="M19.9219 10.9219C14.9515 10.9219 10.9219 14.9515 10.9219 19.9219C10.9219 24.8923 14.9515 28.9219 19.9219 28.9219C24.8923 28.9219 28.9219 24.8923 28.9219 19.9219C28.9219 14.9515 24.8923 10.9219 19.9219 10.9219ZM19.9219 28.0698C15.4308 28.0698 11.7739 24.413 11.7739 19.9219C11.7739 15.4308 15.4308 11.7739 19.9219 11.7739C24.413 11.7739 28.0698 15.4308 28.0698 19.9219C28.0698 24.413 24.413 28.0698 19.9219 28.0698Z" fill="#5630B0"/>
<path d="M20.2975 20.1525V15.4068C20.2975 15.1864 20.1147 15 19.8988 15C19.6828 15 19.5 15.1864 19.5 15.4068V20.322C19.5 20.4237 19.5498 20.5424 19.6163 20.6102L22.8229 23.8814C22.906 23.9661 23.0057 24 23.1054 24C23.2051 24 23.3048 23.9661 23.3879 23.8814C23.5374 23.7288 23.5374 23.4576 23.3879 23.3051L20.2975 20.1525Z" fill="#5630B0"/>
</svg>
