<svg width="40" height="40" viewBox="0 0 40 40" fill="none" xmlns="http://www.w3.org/2000/svg">
<circle cx="20" cy="20" r="20" fill="#CAB7FA"/>
<g clip-path="url(#clip0_5653_14269)">
<path d="M19.207 29.2109C24.1683 29.2109 28.207 25.1722 28.207 20.2109C28.207 18.8353 27.8942 17.5037 27.2806 16.2524C27.1843 16.0559 26.9437 15.9716 26.7431 16.0679C26.6957 16.091 26.6532 16.1232 26.6182 16.1628C26.5833 16.2023 26.5564 16.2484 26.5393 16.2983C26.5222 16.3482 26.515 16.4011 26.5184 16.4537C26.5217 16.5064 26.5354 16.5579 26.5586 16.6053C27.1201 17.7444 27.4049 18.9596 27.4049 20.2109C27.4049 24.731 23.7271 28.4088 19.207 28.4088C14.687 28.4088 11.0092 24.731 11.0092 20.2109C11.0092 15.6909 14.687 12.0131 19.207 12.0131C20.4584 12.0131 21.6736 12.2978 22.8126 12.8593C23.0132 12.9556 23.2538 12.8754 23.3501 12.6748C23.4463 12.4743 23.3661 12.2377 23.1656 12.1374C21.9143 11.5238 20.5827 11.2109 19.207 11.2109C14.2458 11.2109 10.207 15.2497 10.207 20.2109C10.207 25.1722 14.2458 29.2109 19.207 29.2109Z" fill="#5630B0"/>
<path d="M26.4976 15.4641C26.5993 15.4641 26.7011 15.4211 26.7754 15.3507L29.092 13.034C29.2054 12.9205 29.2367 12.7522 29.178 12.6075C29.1482 12.5352 29.0978 12.4734 29.0331 12.4296C28.9684 12.3857 28.8923 12.3619 28.8141 12.3609H27.0533V10.5999C27.0533 10.4434 26.9593 10.2986 26.8107 10.2399C26.6659 10.1812 26.4976 10.2125 26.3841 10.326L24.0676 12.6427C23.9933 12.717 23.9502 12.8188 23.9541 12.9244L23.9776 14.8889L19.3211 19.5457C19.2665 19.6003 19.2293 19.67 19.2144 19.7458C19.1994 19.8216 19.2074 19.9001 19.2371 19.9714C19.2669 20.0427 19.3172 20.1035 19.3816 20.1462C19.446 20.1888 19.5217 20.2114 19.5989 20.2109C19.7006 20.2109 19.7985 20.1718 19.8767 20.0974L24.5333 15.4407L26.4976 15.4641C26.4937 15.4641 26.4937 15.4641 26.4976 15.4641ZM24.7524 14.6619L24.7367 13.081L26.2707 11.543V12.7522C26.2707 12.9675 26.4467 13.1436 26.662 13.1436H27.8711L26.3372 14.6776L24.7524 14.6619Z" fill="#5630B0"/>
<path d="M19.787 18.1247C19.8396 18.1395 19.8946 18.1438 19.9489 18.1373C20.0031 18.1309 20.0556 18.1138 20.1032 18.087C20.1509 18.0603 20.1928 18.0245 20.2266 17.9815C20.2604 17.9386 20.2854 17.8894 20.3002 17.8368C20.315 17.7842 20.3193 17.7292 20.3128 17.6749C20.3064 17.6207 20.2893 17.5682 20.2626 17.5206C20.2358 17.4729 20.2 17.431 20.157 17.3972C20.1141 17.3634 20.0649 17.3384 20.0123 17.3236C19.7453 17.2485 19.4741 17.2109 19.207 17.2109C17.5506 17.2109 16.207 18.5586 16.207 20.2109C16.207 21.8632 17.5547 23.2109 19.207 23.2109C20.8635 23.2109 22.207 21.8632 22.207 20.2109C22.207 19.9439 22.1695 19.6727 22.0944 19.4057C22.0796 19.3531 22.0546 19.3039 22.0208 19.2609C21.987 19.218 21.9451 19.1821 21.8974 19.1554C21.8497 19.1287 21.7973 19.1116 21.743 19.1051C21.6888 19.0987 21.6338 19.103 21.5812 19.1178C21.5286 19.1325 21.4794 19.1576 21.4365 19.1914C21.3935 19.2252 21.3577 19.2671 21.3309 19.3147C21.3042 19.3624 21.2871 19.4148 21.2806 19.4691C21.2742 19.5234 21.2785 19.5784 21.2933 19.631C21.3475 19.8271 21.3767 20.0232 21.3767 20.2151C21.3767 21.4084 20.4045 22.3806 19.2112 22.3806C18.0179 22.3806 17.0457 21.4084 17.0457 20.2151C17.0374 18.8215 18.3725 17.7283 19.787 18.1247Z" fill="#5630B0"/>
<path d="M22.5341 15.7054C22.6556 15.515 22.5989 15.268 22.4085 15.1465C21.4514 14.5364 20.3401 14.2118 19.205 14.2109C15.8962 14.2109 13.207 16.9042 13.207 20.2089C13.207 23.5177 15.9002 26.2109 19.205 26.2109C22.5098 26.2109 25.207 23.5177 25.207 20.2089C25.207 19.079 24.883 17.9693 24.2715 17.0054C24.15 16.8151 23.8989 16.7624 23.7126 16.8799C23.5223 17.0014 23.4656 17.2484 23.5871 17.4387C24.1176 18.273 24.397 19.2288 24.397 20.2049C24.397 23.0682 22.0683 25.3969 19.205 25.3969C16.3417 25.3969 14.017 23.0682 14.017 20.2049C14.017 17.3415 16.3457 15.0169 19.205 15.0169C20.181 15.0169 21.1409 15.2963 21.9711 15.8269C22.0158 15.8567 22.066 15.8772 22.1188 15.8873C22.1716 15.8973 22.2258 15.8967 22.2783 15.8853C22.3308 15.874 22.3805 15.8522 22.4245 15.8213C22.4684 15.7904 22.5057 15.751 22.5341 15.7054Z" fill="#5630B0"/>
</g>
<defs>
<clipPath id="clip0_5653_14269">
<rect width="20" height="20" fill="white" transform="translate(10 10)"/>
</clipPath>
</defs>
</svg>
